<svg width="45" height="45" viewBox="0 0 45 45" fill="none" xmlns="http://www.w3.org/2000/svg">
<g clip-path="url(#clip0_20322_174)">
<path d="M44.5999 22.5C44.5999 10.28 34.7199 0.400025 22.4999 0.400025C10.2799 0.400026 0.399903 10.28 0.399903 22.5C0.399904 34.72 10.2799 44.6 22.4999 44.6C34.7199 44.6 44.5999 34.72 44.5999 22.5ZM2.9999 22.5C2.9999 11.71 11.7099 3.00003 22.4999 3.00003C33.2899 3.00003 41.9999 11.71 41.9999 22.5C41.9999 33.29 33.2899 42 22.4999 42C11.7099 42 2.9999 33.29 2.9999 22.5Z" fill="#929292"/>
<path d="M24.7098 33.29L13.9198 22.5L24.7098 11.71L22.8898 9.88996L10.2798 22.5L22.8898 35.11L24.7098 33.29Z" fill="#929292"/>
<path d="M12.1001 21.2L12.1001 23.8L34.2001 23.8L34.2001 21.2L12.1001 21.2Z" fill="#929292"/>
</g>
<defs>
<clipPath id="clip0_20322_174">
<rect width="45" height="45" fill="white" transform="matrix(4.37114e-08 1 1 -4.37114e-08 0 1.96701e-06)"/>
</clipPath>
</defs>
</svg>
