<svg width="45" height="45" viewBox="0 0 45 45" fill="none" xmlns="http://www.w3.org/2000/svg">
<g clip-path="url(#clip0_20052_92)">
<path d="M0.400096 22.5C0.400096 10.28 10.2801 0.400025 22.5001 0.400025C34.7201 0.400026 44.6001 10.28 44.6001 22.5C44.6001 34.72 34.7201 44.6 22.5001 44.6C10.2801 44.6 0.400095 34.72 0.400096 22.5ZM42.0001 22.5C42.0001 11.71 33.2901 3.00003 22.5001 3.00003C11.7101 3.00003 3.00009 11.71 3.00009 22.5C3.00009 33.29 11.7101 42 22.5001 42C33.2901 42 42.0001 33.29 42.0001 22.5Z" fill="#929292"/>
<path d="M20.2902 33.29L31.0802 22.5L20.2902 11.71L22.1102 9.88996L34.7202 22.5L22.1102 35.11L20.2902 33.29Z" fill="#929292"/>
<path d="M32.8999 21.2L32.8999 23.8L10.7999 23.8L10.7999 21.2L32.8999 21.2Z" fill="#929292"/>
</g>
<defs>
<clipPath id="clip0_20052_92">
<rect width="45" height="45" fill="white" transform="translate(45 1.96701e-06) rotate(90)"/>
</clipPath>
</defs>
</svg>
