<svg width="24" height="24" viewBox="0 0 24 24" fill="none" xmlns="http://www.w3.org/2000/svg">
<path d="M11.9999 2.40002C6.6979 2.40002 2.3999 6.69802 2.3999 12C2.3999 17.302 6.6979 21.6 11.9999 21.6C17.3019 21.6 21.5999 17.302 21.5999 12C21.5999 6.69802 17.3019 2.40002 11.9999 2.40002ZM15.6919 13.231C15.6919 13.231 16.5409 14.069 16.7499 14.458C16.7559 14.4667 16.7596 14.4734 16.7609 14.478C16.8456 14.62 16.8666 14.7324 16.8239 14.815C16.7539 14.953 16.5139 15.021 16.4319 15.027H14.9319C14.8279 15.027 14.6099 15 14.3459 14.818C14.1429 14.676 13.9429 14.443 13.7479 14.216C13.4569 13.878 13.2049 13.586 12.9509 13.586C12.9186 13.5859 12.8866 13.5909 12.8559 13.601C12.6639 13.663 12.4179 13.937 12.4179 14.667C12.4179 14.895 12.2379 15.026 12.1109 15.026H11.4239C11.1899 15.026 9.9709 14.944 8.8909 13.805C7.5689 12.41 6.3789 9.61202 6.3689 9.58602C6.2939 9.40502 6.4489 9.30802 6.6179 9.30802H8.1329C8.3349 9.30802 8.4009 9.43102 8.4469 9.54002C8.5009 9.66702 8.6989 10.172 9.0239 10.74C9.5509 11.666 9.8739 12.042 10.1329 12.042C10.1815 12.0415 10.2292 12.0291 10.2719 12.006C10.6099 11.818 10.5469 10.613 10.5319 10.363C10.5319 10.316 10.5309 9.82402 10.3579 9.58802C10.2339 9.41702 10.0229 9.35202 9.8949 9.32802C9.94671 9.25654 10.015 9.19857 10.0939 9.15902C10.3259 9.04302 10.7439 9.02602 11.1589 9.02602H11.3899C11.8399 9.03202 11.9559 9.06102 12.1189 9.10202C12.4489 9.18102 12.4559 9.39402 12.4269 10.123C12.4179 10.33 12.4089 10.564 12.4089 10.84L12.4059 11.032C12.3959 11.403 12.3839 11.824 12.6459 11.997C12.6797 12.0193 12.7194 12.0308 12.7599 12.03C12.8509 12.03 13.1249 12.03 13.8669 10.757C14.0949 10.3468 14.2937 9.92113 14.4619 9.48302C14.4769 9.45702 14.5209 9.37702 14.5729 9.34602C14.6117 9.3276 14.654 9.31771 14.6969 9.31702H16.4779C16.6719 9.31702 16.8049 9.34602 16.8299 9.42102C16.8739 9.54002 16.8219 9.90302 16.0089 11.004L15.6459 11.483C14.9089 12.449 14.9089 12.498 15.6919 13.231Z" fill="#F3F1FB"/>
</svg>
