<svg width="24" height="24" viewBox="0 0 24 24" fill="none" xmlns="http://www.w3.org/2000/svg">
<path fill-rule="evenodd" clip-rule="evenodd" d="M12.5932 23.258L12.5822 23.26L12.5112 23.295L12.4912 23.299L12.4772 23.295L12.4062 23.26C12.3955 23.2567 12.3875 23.2583 12.3822 23.265L12.3782 23.275L12.3612 23.703L12.3662 23.723L12.3762 23.736L12.4802 23.81L12.4952 23.814L12.5072 23.81L12.6112 23.736L12.6232 23.72L12.6272 23.703L12.6102 23.276C12.6075 23.2653 12.6018 23.2593 12.5932 23.258ZM12.8582 23.145L12.8452 23.147L12.6602 23.24L12.6502 23.25L12.6472 23.261L12.6652 23.691L12.6702 23.703L12.6782 23.71L12.8792 23.803C12.8918 23.8063 12.9015 23.8037 12.9082 23.795L12.9122 23.781L12.8782 23.167C12.8748 23.155 12.8682 23.1477 12.8582 23.145ZM12.1432 23.147C12.1388 23.1443 12.1335 23.1435 12.1285 23.1446C12.1234 23.1457 12.119 23.1487 12.1162 23.153L12.1102 23.167L12.0762 23.781C12.0768 23.793 12.0825 23.801 12.0932 23.805L12.1082 23.803L12.3092 23.71L12.3192 23.702L12.3232 23.691L12.3402 23.261L12.3372 23.249L12.3272 23.239L12.1432 23.147Z" fill="#F3F1FB"/>
<path fill-rule="evenodd" clip-rule="evenodd" d="M12 2C17.523 2 22 6.477 22 12C22 17.523 17.523 22 12 22C10.298 22.0024 8.62372 21.5686 7.13701 20.74L6.83201 20.562L3.80001 21.454C3.63501 21.5026 3.46033 21.5083 3.29252 21.4705C3.12472 21.4327 2.96935 21.3526 2.84115 21.238C2.71294 21.1233 2.61615 20.9778 2.55995 20.8152C2.50375 20.6526 2.49 20.4784 2.52001 20.309L2.54601 20.2L3.43801 17.168C2.49506 15.6093 1.99769 13.8218 2.00001 12C2.00001 6.477 6.47701 2 12 2ZM9.79301 9.793L6.79301 12.793C6.6975 12.8852 6.62132 12.9956 6.56891 13.1176C6.5165 13.2396 6.48891 13.3708 6.48776 13.5036C6.4866 13.6364 6.51191 13.7681 6.56219 13.891C6.61247 14.0139 6.68672 14.1255 6.78061 14.2194C6.87451 14.3133 6.98616 14.3875 7.10905 14.4378C7.23195 14.4881 7.36363 14.5134 7.49641 14.5123C7.62919 14.5111 7.76041 14.4835 7.88241 14.4311C8.00442 14.3787 8.11476 14.3025 8.20701 14.207L10.5 11.914L12.793 14.207C12.9805 14.3945 13.2348 14.4998 13.5 14.4998C13.7652 14.4998 14.0195 14.3945 14.207 14.207L17.207 11.207C17.3892 11.0184 17.49 10.7658 17.4877 10.5036C17.4854 10.2414 17.3802 9.99059 17.1948 9.80518C17.0094 9.61977 16.7586 9.5146 16.4964 9.51233C16.2342 9.51005 15.9816 9.61084 15.793 9.793L13.5 12.086L11.207 9.793C11.0195 9.60553 10.7652 9.50021 10.5 9.50021C10.2348 9.50021 9.98054 9.60553 9.79301 9.793Z" fill="#F3F1FB"/>
</svg>
